<svg width="274" height="568" viewBox="0 0 274 568" fill="none" xmlns="http://www.w3.org/2000/svg">
<g clip-path="url(#clip0_362_970)">
<rect width="274" height="568" fill="white"/>
<rect width="274" height="568" fill="#23AB84" fill-opacity="0.3"/>
<path d="M36.2771 611.001H-8.34375V609.609H25.1456H32.6221C35.1336 589.324 42.7033 530.282 46.9735 519.925C51.3416 509.331 55.6626 507.01 60.4368 504.519C61.3165 504.061 62.211 503.597 63.1243 503.073C63.1355 503.066 63.1467 503.06 63.1585 503.053C63.1598 503.053 63.1623 503.052 63.1641 503.05C63.1679 503.048 63.1716 503.046 63.1753 503.044C63.1778 503.042 63.1803 503.041 63.1828 503.04C63.1859 503.038 63.189 503.036 63.1915 503.035C66.2164 501.298 71.3112 498.061 76.3836 493.859V501.927C74.0554 503.607 71.8348 505.054 69.9354 506.215L69.908 506.232C69.6802 506.371 69.4567 506.506 69.2388 506.637L69.1517 506.688C68.9543 506.807 68.7588 506.923 68.569 507.034L68.427 507.118C68.2621 507.214 68.0977 507.31 67.9402 507.401C67.8369 507.461 67.7404 507.516 67.6414 507.572C67.5405 507.63 67.4372 507.689 67.3401 507.744C67.1459 507.854 66.9591 507.958 66.7792 508.058C65.8659 508.563 64.9714 509.012 64.0923 509.456C59.3175 511.862 54.9965 514.104 50.6288 524.342C46.3582 534.349 38.7886 591.4 36.2771 611.001ZM69.9199 467.488C68.6966 466.725 66.7786 465.406 64.9838 463.65C64.751 463.422 64.4739 463.18 64.1664 462.926C67.8213 459.874 71.3249 456.111 73.2884 454.354C73.929 453.781 74.5316 453.535 75.1112 453.535C75.5457 453.535 75.9672 453.673 76.3836 453.915V461.478C74.7868 462.927 72.4611 465.253 69.9199 467.488Z" fill="#DEDBD9"/>
<path d="M95.387 454.354C93.9539 454.354 91.0747 452.527 87.9782 450.106C92.4038 448.196 96.5922 442.575 94.142 442.575C90.8824 442.575 80.1349 433.12 76.3823 428.724C72.6291 424.327 56.4787 433.743 52.4322 439.586C52.4322 439.586 47.4519 452.108 52.4322 455.22L52.4359 455.222C51.3814 459.173 50.4918 465.009 53.6773 467C58.6575 470.113 69.2406 457.973 73.2871 454.354C77.3335 450.735 79.8237 460.152 84.9901 462.229C90.1565 464.306 98.6466 454.354 95.387 454.354Z" fill="#CC7D62"/>
<path d="M86.694 433.91C84.5581 431.475 72.3539 418.51 68.6517 418.51C57.2089 418.51 33.9498 436.654 31.4638 441.529C28.9775 446.404 25.2426 458.156 22.1688 470.731C19.0948 483.305 18.3726 496.336 16.3741 502.723C14.3762 509.111 11.5882 516.312 4.98228 531.904C1.32321 540.54 -6.10247 560.839 -12 577.231V609.609H32.6208C35.1323 589.324 42.702 530.282 46.9722 519.925C51.3403 509.331 55.6613 507.01 60.4355 504.519C63.9491 490.873 63.9491 484.168 64.9825 463.65C62.9792 461.69 57.7661 458.721 57.2089 455.843C55.8325 448.737 52.4322 442.575 66.7505 434.154C66.7505 434.154 77.191 440.794 80.3554 440.431C80.3554 440.431 85.4439 444.044 87.8139 444.997C90.1839 445.95 97.0399 446.771 97.7577 441.159C97.7577 441.159 88.8299 436.345 86.694 433.91Z" fill="#E4977B"/>
<path d="M189.384 552.641H84.8188C80.1597 552.641 76.3828 548.864 76.3828 544.205V501.927V540.524C76.3828 545.183 80.1597 548.961 84.8188 548.961H182.207C182.299 549.014 182.392 549.067 182.484 549.12C182.619 549.197 182.755 549.273 182.89 549.349C183.095 549.464 183.3 549.578 183.506 549.692C183.637 549.764 183.768 549.836 183.899 549.908C184.124 550.03 184.349 550.15 184.574 550.27C184.682 550.327 184.79 550.386 184.899 550.443C185.228 550.616 185.557 550.786 185.885 550.953C185.954 550.988 186.022 551.021 186.091 551.057C186.355 551.191 186.619 551.323 186.883 551.453C187.004 551.513 187.124 551.571 187.245 551.63C187.455 551.732 187.664 551.834 187.873 551.934C188.004 551.997 188.135 552.059 188.266 552.121C188.467 552.216 188.668 552.31 188.867 552.403C188.996 552.463 189.124 552.522 189.253 552.581C189.297 552.601 189.34 552.621 189.384 552.641Z" fill="#DEDBD9"/>
<path d="M202.449 548.961H84.8188C80.1597 548.961 76.3828 545.183 76.3828 540.524V366.351C76.3828 361.692 80.1597 357.915 84.8188 357.915H202.449C207.108 357.915 210.885 361.692 210.885 366.351V540.524C210.885 545.183 207.108 548.961 202.449 548.961Z" fill="#0F4A3F"/>
<path d="M84.1719 542.061H203.1V364.815H84.1719V542.061Z" fill="white"/>
<path d="M191.257 402.679H119.043V396.702H191.257V402.679Z" fill="#A7AAA9"/>
<path d="M191.257 413.542H119.043V407.565H191.257V413.542Z" fill="#CDCBC9"/>
<path d="M191.257 424.405H95.3867V418.428H191.257V424.405Z" fill="#CDCBC9"/>
<path d="M119.098 364.814C119.135 366.483 120.493 367.825 122.17 367.825H165.096C166.773 367.825 168.131 366.483 168.168 364.814H119.098Z" fill="#CDCBC9"/>
<path d="M143.631 352.244C142.191 352.244 141.024 351.077 141.024 349.636C141.024 348.196 142.191 347.028 143.631 347.028C145.071 347.028 146.239 348.196 146.239 349.636C146.239 351.077 145.071 352.244 143.631 352.244ZM165.094 349.636H150.268C150.268 345.971 147.297 343 143.631 343C139.967 343 136.995 345.971 136.995 349.636H122.168C120.468 349.636 119.09 351.014 119.09 352.715V363.113C119.09 364.814 120.468 366.193 122.168 366.193H165.094C166.795 366.193 168.173 364.814 168.173 363.113V352.715C168.173 351.014 166.795 349.636 165.094 349.636Z" fill="#CDCBC9"/>
<path d="M119.09 360.364V363.113C119.09 364.814 120.468 366.193 122.168 366.193H165.094C166.795 366.193 168.173 364.814 168.173 363.113V360.364H119.09Z" fill="#C2C2BF"/>
<path d="M113.653 396.702H95.3867V413.542H113.653V396.702ZM110.54 399.814V410.429H98.4994V399.814H110.54Z" fill="#CDCBC9"/>
<path d="M191.257 440.427H119.043V434.45H191.257V440.427Z" fill="#A7AAA9"/>
<path d="M191.257 451.29H119.043V445.313H191.257V451.29Z" fill="#CDCBC9"/>
<path d="M95.3867 462.153H191.257V456.177H95.3867V462.153Z" fill="#CDCBC9"/>
<path d="M138.03 503.339H95.3867V509.315H138.03V503.339Z" fill="#CDCBC9"/>
<path d="M118.732 513.823H95.3867V519.801H118.732V513.823Z" fill="#CDCBC9"/>
<path d="M148.793 509.315H191.437V503.338H148.793V509.315Z" fill="#CDCBC9"/>
<path d="M148.793 519.801H172.138V513.823H148.793V519.801Z" fill="#CDCBC9"/>
<path d="M113.653 434.45H95.3867V451.29H113.653V434.45ZM110.54 437.563V448.178H98.4994V437.563H110.54Z" fill="#CDCBC9"/>
<path d="M95.3867 478.075H191.257V472.199H95.3867V478.075Z" fill="#A7AAA9"/>
<path d="M138.16 482.25H95.3867V499.089H138.16V482.25ZM135.047 485.362V495.976H98.4994V485.362H135.047Z" fill="#CDCBC9"/>
<path d="M191.258 482.25H148.484V499.089H191.258V482.25ZM188.145 485.362V495.976H151.597V485.362H188.145Z" fill="#CDCBC9"/>
<path d="M113.978 396.021L104.485 405.513L100.144 401.172C99.4403 400.468 98.2986 400.468 97.5945 401.172C96.8904 401.876 96.8904 403.017 97.5945 403.721L103.21 409.337C103.546 409.673 104.01 409.865 104.485 409.865C104.96 409.865 105.424 409.673 105.76 409.337L116.527 398.57C117.231 397.866 117.231 396.724 116.527 396.021C115.823 395.316 114.681 395.316 113.978 396.021Z" fill="#23AB84"/>
<path d="M113.978 433.176L104.485 442.668L100.144 438.327C99.4403 437.623 98.2986 437.623 97.5945 438.327C96.8904 439.031 96.8904 440.173 97.5945 440.877L103.21 446.492C103.546 446.828 104.01 447.02 104.485 447.02C104.96 447.02 105.424 446.828 105.76 446.492L116.527 435.725C117.231 435.021 117.231 433.88 116.527 433.176C115.823 432.472 114.681 432.472 113.978 433.176Z" fill="#23AB84"/>
<path d="M76.4023 501.908V493.844C79.1048 491.603 81.7991 489.091 84.1703 486.385V495.605C82.5287 497.123 80.8192 498.553 79.1222 499.875H79.1216C78.2064 500.588 77.2982 501.262 76.4023 501.908Z" fill="#329793"/>
<path d="M84.1719 495.605V486.385C86.0389 484.255 87.7047 482.005 89.0152 479.676C91.4468 475.353 93.574 473.516 95.3893 472.279V478.075H99.3941C97.5034 479.276 95.2598 481.001 92.6701 485.449C90.5497 489.091 87.4987 492.529 84.1719 495.605ZM105.566 472.199H95.5082C96.6742 471.414 97.7101 470.865 98.614 470.037C98.845 469.826 99.0679 469.596 99.2814 469.34C99.5653 469 99.8336 468.612 100.087 468.158L100.089 468.156C101.362 466.811 102.162 465.546 103.305 464.208C103.869 463.547 104.518 462.868 105.349 462.153H113.493C114.237 463.657 114.072 465.208 112.822 465.923C108.552 468.367 107.082 470.289 105.566 472.199Z" fill="#DEDBD9"/>
<path d="M113.492 462.153H105.348C106.254 461.373 107.377 460.551 108.846 459.66C108.95 459.597 109.057 459.533 109.166 459.469C109.398 459.331 109.593 459.164 109.751 458.972C111.58 459.642 112.862 460.88 113.492 462.153Z" fill="#B5B6B4"/>
<path d="M99.3915 478.075H95.3867V472.279C95.4266 472.252 95.4658 472.226 95.5056 472.199H105.564C105.009 472.898 104.448 473.596 103.741 474.317L103.739 474.319C102.599 476.296 101.148 476.96 99.3915 478.075Z" fill="#949A9B"/>
<path d="M241.399 609.609H236.783C232.01 596.363 224.583 576.948 219.691 569.892C211.983 558.776 206.792 558.932 200.343 556.897C200.155 556.838 199.958 556.774 199.754 556.708C199.693 556.688 199.628 556.667 199.567 556.646C199.424 556.599 199.28 556.552 199.13 556.502C199.048 556.474 198.963 556.445 198.878 556.417C198.738 556.37 198.596 556.321 198.451 556.271C198.361 556.241 198.271 556.21 198.18 556.177C198.03 556.125 197.878 556.072 197.724 556.018C197.633 555.985 197.544 555.954 197.451 555.921C197.259 555.852 197.062 555.782 196.863 555.708C196.807 555.688 196.752 555.669 196.694 555.648C196.436 555.554 196.172 555.455 195.903 555.354C195.832 555.328 195.759 555.299 195.688 555.272C195.489 555.197 195.288 555.12 195.083 555.041C194.979 555.001 194.874 554.96 194.77 554.92C194.59 554.85 194.409 554.779 194.226 554.706C194.114 554.661 194.001 554.617 193.888 554.571C193.704 554.497 193.518 554.422 193.33 554.346C193.217 554.3 193.106 554.255 192.992 554.208C192.788 554.124 192.582 554.038 192.375 553.952C192.276 553.91 192.177 553.869 192.077 553.827C191.773 553.698 191.466 553.568 191.156 553.433L191.008 553.367C190.744 553.253 190.48 553.136 190.213 553.017C190.1 552.966 189.985 552.914 189.87 552.862C189.708 552.789 189.546 552.716 189.383 552.641H202.448C206.135 552.641 209.27 550.275 210.418 546.978C213.226 548.647 216.2 551.383 219.691 556.439C227.399 567.608 241.399 609.609 241.399 609.609Z" fill="#DEDBD9"/>
<path d="M202.449 552.641H189.384C189.34 552.621 189.296 552.601 189.252 552.581C189.124 552.522 188.996 552.463 188.867 552.403C188.668 552.31 188.467 552.216 188.266 552.121C188.135 552.059 188.004 551.997 187.873 551.934C187.664 551.834 187.455 551.732 187.245 551.63C187.124 551.571 187.004 551.513 186.882 551.453C186.619 551.323 186.355 551.191 186.09 551.057C186.022 551.021 185.953 550.988 185.884 550.953C185.557 550.786 185.228 550.616 184.899 550.443C184.79 550.386 184.682 550.327 184.574 550.27C184.349 550.15 184.124 550.03 183.899 549.908C183.768 549.836 183.637 549.764 183.506 549.692C183.3 549.578 183.095 549.464 182.889 549.349C182.754 549.273 182.619 549.197 182.483 549.12C182.391 549.067 182.299 549.014 182.207 548.961H202.449C204.967 548.961 207.229 547.857 208.774 546.107C209.318 546.362 209.865 546.649 210.418 546.978C209.271 550.275 206.136 552.641 202.449 552.641Z" fill="#C4C3C1"/>
<path d="M202.45 548.961H182.208C182.095 548.896 181.982 548.83 181.869 548.764C181.74 548.689 181.61 548.614 181.481 548.537C181.252 548.401 181.025 548.264 180.797 548.126C180.693 548.063 180.589 548.002 180.487 547.938C180.162 547.739 179.839 547.537 179.517 547.332C179.436 547.28 179.356 547.227 179.275 547.175C179.031 547.018 178.788 546.859 178.546 546.699C178.427 546.62 178.308 546.539 178.19 546.459C177.987 546.321 177.784 546.184 177.583 546.044C177.456 545.957 177.331 545.869 177.205 545.78C177.011 545.643 176.818 545.505 176.626 545.366C176.502 545.277 176.38 545.187 176.257 545.097C176.055 544.947 175.856 544.797 175.657 544.646C175.551 544.565 175.442 544.484 175.336 544.401C175.061 544.19 174.79 543.975 174.523 543.758L174.438 543.692V543.691C173.787 543.161 173.155 542.618 172.547 542.061H196.512C197.985 542.606 199.287 543.048 200.344 543.384C203.298 544.32 205.987 544.794 208.775 546.107C207.229 547.857 204.968 548.961 202.45 548.961Z" fill="#329793"/>
<path d="M196.511 542.061H172.546C171.676 541.263 170.854 540.437 170.092 539.582C161.803 530.281 158.742 535.913 154.632 527.149C153.125 523.934 155.805 522.669 156.66 519.801H161.505C163.69 520.614 166.362 521.782 170.092 525.988C170.109 526.006 170.125 526.024 170.141 526.042C170.145 526.047 170.148 526.05 170.152 526.055C173.933 530.294 179.197 533.842 184.418 536.643C184.419 536.644 184.421 536.645 184.423 536.647C184.429 536.65 184.435 536.653 184.441 536.656C184.446 536.658 184.451 536.662 184.456 536.664C184.461 536.666 184.466 536.67 184.471 536.672C184.477 536.675 184.482 536.678 184.488 536.681C184.492 536.683 184.497 536.686 184.501 536.688C184.51 536.693 184.516 536.696 184.525 536.701C184.527 536.702 184.529 536.703 184.532 536.704C188.851 539.013 193.132 540.809 196.511 542.061ZM154.202 511.291C154.187 511.176 154.194 511.053 154.227 510.93L154.413 510.238L152.3 509.315H154.966C154.588 509.946 154.283 510.575 154.202 511.291ZM185.085 511.041C185.043 511.022 185.002 511.004 184.96 510.986L185.107 511.022C185.092 511.034 185.085 511.041 185.085 511.041ZM179.096 510.349C178.708 509.939 178.247 509.598 177.745 509.315H178.213L178.259 509.327C178.253 509.323 178.247 509.319 178.241 509.315H184.851C183.776 509.726 182.485 510.048 181.217 510.059L182.28 510.322C181.748 510.264 181.246 510.244 180.803 510.244C179.792 510.244 179.096 510.349 179.096 510.349ZM148.792 507.816C147.95 507.528 147.318 507.07 147.212 506.271L145.685 505.605C145.272 505.486 144.974 505.268 145.106 504.779C145.202 504.426 145.42 504.307 145.692 504.307C145.796 504.307 145.908 504.324 146.023 504.353L147.68 504.539L147.719 504.48C147.81 504.371 147.91 504.279 148.019 504.204C148.237 504.054 148.486 503.969 148.757 503.932C148.769 503.931 148.781 503.929 148.792 503.928V507.816ZM191.317 503.338H171.331C171.049 501.259 170.073 500.015 169.194 499.088H188.64C189.383 499.674 190.264 499.9 191.161 499.9C191.67 499.9 192.184 499.828 192.681 499.707C192.397 500.972 191.91 502.194 191.317 503.338ZM156.833 503.338H156.668C156.716 503.296 156.765 503.253 156.813 503.208C156.82 503.252 156.827 503.296 156.833 503.338ZM191.257 491.959V489.721C191.529 490.18 191.76 490.651 191.955 491.138C191.726 491.413 191.492 491.687 191.257 491.959Z" fill="#DEDBD9"/>
<path d="M184.852 509.315H178.241C177.493 508.852 176.855 508.148 176.409 507.122C175.653 507.498 174.687 507.862 173.653 508.087C172.698 507.965 171.877 507.942 171.399 507.942C171.116 507.942 170.953 507.95 170.953 507.95C171.276 506.649 171.411 505.531 171.411 504.565C171.411 504.126 171.383 503.718 171.331 503.338H191.317C190.914 504.115 190.46 504.856 189.988 505.549C188.854 506.658 187.64 507.769 186.775 508.352C186.313 508.664 185.641 509.014 184.852 509.315ZM178.213 509.315H177.746C177.608 509.237 177.467 509.164 177.324 509.094L178.213 509.315ZM154.966 509.315H152.301L149.067 507.902C148.973 507.876 148.882 507.847 148.793 507.816V503.928C148.888 503.917 148.984 503.912 149.084 503.912C149.405 503.912 149.75 503.966 150.107 504.054L155.205 504.625C155.44 504.422 155.794 504.114 156.227 503.731C156.301 503.622 156.398 503.545 156.503 503.486C156.557 503.438 156.613 503.388 156.669 503.338H156.834C156.887 503.705 156.91 504.05 156.91 504.376C156.909 506.612 155.772 507.968 154.966 509.315Z" fill="#B5B6B4"/>
<path d="M161.505 519.801H156.66C156.89 519.031 156.988 518.146 156.839 517.077C158.278 518.711 159.731 519.14 161.505 519.801Z" fill="#B5B6B4"/>
<path d="M187.595 495.976H163.883C163.991 495.816 164.086 495.665 164.166 495.522C164.47 494.976 165.006 493.93 165.697 492.594C166.069 492.318 166.489 491.968 166.931 491.575C167.888 493.835 169.757 494.571 171.691 494.571C173.911 494.571 176.215 493.6 177.318 492.853C179.432 491.421 183.643 486.814 183.643 486.814C183.704 486.808 184.639 486.188 185.836 485.362H187.004C187.411 485.654 187.792 485.944 188.147 486.234V495.394C187.938 495.617 187.751 495.812 187.595 495.976Z" fill="#DEDBD9"/>
<path d="M188.641 499.089H169.195C169.015 498.898 168.839 498.721 168.673 498.552C168.668 498.547 168.664 498.543 168.659 498.538C168.651 498.53 168.644 498.523 168.637 498.516C167.539 497.428 165.516 496.752 163.422 496.599C163.593 496.38 163.747 496.172 163.881 495.976H187.593C187.256 496.329 187.055 496.534 187.055 496.534C187.414 497.742 187.971 498.561 188.641 499.089ZM188.146 495.394V486.234C189.538 487.371 190.541 488.507 191.258 489.721V491.959C190.119 493.278 188.958 494.533 188.146 495.394ZM187.003 485.362H185.835C186.024 485.232 186.22 485.096 186.42 484.956C186.62 485.092 186.814 485.227 187.003 485.362Z" fill="#B5B6B4"/>
<path d="M190.966 481.295V477.263H178.629C177.248 479.507 176.462 481.067 176.067 481.78C174.493 484.611 166.785 491.203 166.785 491.203C168.673 496.537 175.201 494.286 177.316 492.853C179.431 491.421 183.641 486.814 183.641 486.814C183.843 486.793 193.299 480.264 190.966 481.295Z" fill="#CC7D62"/>
<path d="M200.427 483.053V477.263H189.206C187.112 480.457 186.019 482.652 185.527 483.538C183.954 486.369 176.246 492.962 176.246 492.962C178.134 498.295 184.661 496.043 186.776 494.611C188.89 493.178 193.101 488.571 193.101 488.571C193.302 488.551 202.76 482.022 200.427 483.053Z" fill="#CC7D62"/>
<path d="M207.31 486.625V477.263H199.993C196.838 482.394 195.38 485.925 194.829 487.11C193.511 489.941 187.055 496.534 187.055 496.534C188.636 501.867 194.104 499.615 195.876 498.183C197.647 496.751 201.174 492.143 201.174 492.143C201.342 492.124 209.265 485.594 207.31 486.625Z" fill="#CC7D62"/>
<path d="M154.881 491.144C154.881 491.144 162.59 484.552 164.163 481.72C165.736 478.889 173.443 462.686 177.062 461.9C180.68 461.113 192.005 470.08 196.724 472.754C201.444 475.428 214.814 472.298 218.275 476.537C221.736 480.776 227.87 491.473 233.533 503.113C239.197 514.755 242.657 527.338 245.96 533.158C249.264 538.979 253.511 545.429 263.264 559.271C273.017 573.114 296.927 609.609 296.927 609.609H241.399C241.399 609.609 227.399 567.608 219.691 556.439C211.983 545.271 206.792 545.429 200.342 543.384C193.893 541.339 178.379 535.334 170.092 525.988C161.803 516.642 158.741 522.302 154.631 513.496C152.556 509.05 158.416 508.316 156.529 501.981C154.641 495.646 165.561 495.383 168.671 498.552C170.11 500.018 172.391 502.154 170.951 507.95C170.951 507.95 176.567 507.675 179.095 510.349C179.095 510.349 182.41 509.844 185.084 511.04C185.084 511.04 193.107 504.372 192.949 497.136C192.792 489.9 190.742 486.457 179.095 480.934C179.095 480.934 174.906 486.439 171.737 486.754C171.737 486.754 167.527 491.361 165.412 492.793C163.297 494.226 156.769 496.478 154.881 491.144Z" fill="#E4977B"/>
<mask id="mask0_362_970" style="mask-type:luminance" maskUnits="userSpaceOnUse" x="-12" y="343" width="309" height="269">
<path d="M-11.9961 611.001H296.905V343.001H-11.9961V611.001Z" fill="white"/>
</mask>
<g mask="url(#mask0_362_970)">
<mask id="mask1_362_970" style="mask-type:luminance" maskUnits="userSpaceOnUse" x="154" y="461" width="143" height="149">
<path d="M154.889 491.144C154.889 491.144 162.597 484.552 164.17 481.72C165.744 478.889 173.451 462.686 177.069 461.9C180.688 461.113 192.013 470.08 196.732 472.754C201.452 475.428 214.822 472.298 218.283 476.537C221.744 480.776 227.878 491.473 233.541 503.113C239.204 514.755 242.665 527.338 245.968 533.159C249.272 538.979 253.519 545.429 263.272 559.271C273.025 573.114 296.935 609.609 296.935 609.609H241.407C241.407 609.609 227.407 567.608 219.699 556.439C211.991 545.271 206.8 545.429 200.35 543.384C193.901 541.339 178.387 535.334 170.099 525.988C161.81 516.642 158.749 522.302 154.639 513.496C152.564 509.05 158.424 508.316 156.536 501.981C154.649 495.646 165.569 495.383 168.679 498.552C170.118 500.018 172.398 502.154 170.959 507.95C170.959 507.95 176.575 507.675 179.103 510.35C179.103 510.35 182.418 509.844 185.092 511.041C185.092 511.041 193.115 504.372 192.957 497.136C192.8 489.901 190.75 486.457 179.103 480.934C179.103 480.934 174.914 486.439 171.745 486.754C171.745 486.754 167.535 491.361 165.42 492.793C163.305 494.226 156.777 496.478 154.889 491.144Z" fill="white"/>
</mask>
<g mask="url(#mask1_362_970)">
<path d="M233.756 525.864C233.447 525.864 233.137 525.812 232.834 525.703L229.39 524.463L228.006 523.965C227.118 524.631 226.086 525.006 225.049 525.006C224.571 525.006 224.091 524.927 223.624 524.759L188.898 512.259C188.714 512.532 188.43 512.699 188.143 512.699C188.065 512.699 187.988 512.687 187.911 512.661L185.742 511.926C185.366 511.798 185.156 511.387 185.207 510.944C185.941 510.308 190.079 506.588 191.991 501.904C192.127 502.08 192.195 502.318 192.181 502.569L227.354 513.75C227.507 513.798 227.655 513.857 227.799 513.922L227.938 513.992C228.033 514.038 228.127 514.086 228.216 514.139L228.372 514.238C228.45 514.29 228.528 514.342 228.604 514.399L228.757 514.52C228.827 514.578 228.894 514.638 228.961 514.7L229.105 514.839C229.168 514.903 229.227 514.97 229.287 515.038L229.419 515.192C229.476 515.264 229.529 515.34 229.583 515.416L229.697 515.577C229.778 515.701 229.853 515.83 229.923 515.963C229.964 516.04 229.999 516.12 230.035 516.2C230.066 516.264 230.098 516.328 230.126 516.394C230.161 516.481 230.193 516.569 230.225 516.658C230.247 516.721 230.27 516.782 230.291 516.846C230.312 516.912 230.332 516.977 230.35 517.043L235.242 518.598C236.93 519.135 237.761 521.2 237.089 523.184C236.539 524.808 235.155 525.864 233.756 525.864Z" fill="#C88971"/>
<path d="M168.646 498.516C167.391 497.271 164.921 496.566 162.521 496.565C164.922 496.565 167.391 497.271 168.646 498.516Z" fill="#C88971"/>
<path d="M159.794 494.511C157.758 494.511 155.794 493.695 154.891 491.144C154.891 491.144 155.022 491.032 155.253 490.831L163.925 493.588C162.757 494.09 161.257 494.511 159.794 494.511Z" fill="#C88971"/>
</g>
</g>
<path d="M196.511 542.061C193.133 540.809 188.852 539.013 184.532 536.704C188.851 539.013 193.133 540.809 196.511 542.061ZM184.488 536.681C184.482 536.678 184.477 536.675 184.472 536.672C184.477 536.675 184.483 536.678 184.488 536.681ZM184.424 536.647C184.422 536.645 184.419 536.644 184.418 536.643C184.419 536.644 184.422 536.646 184.424 536.647Z" fill="#C4C3C1"/>
<path d="M245.472 609.609H241.4C241.4 609.609 227.4 567.608 219.692 556.439C215.514 550.386 212.075 547.659 208.775 546.107C205.986 544.794 203.297 544.32 200.344 543.384C199.286 543.048 197.985 542.606 196.511 542.061C193.133 540.809 188.851 539.013 184.532 536.704C184.53 536.703 184.527 536.701 184.525 536.701C184.516 536.696 184.51 536.693 184.501 536.688C184.498 536.686 184.492 536.683 184.488 536.681C184.483 536.678 184.477 536.675 184.471 536.672C184.467 536.67 184.461 536.666 184.457 536.664C184.452 536.661 184.447 536.658 184.442 536.656C184.435 536.653 184.43 536.65 184.424 536.647C184.422 536.646 184.419 536.644 184.418 536.643C180.963 534.79 177.489 532.608 174.438 530.116C186.596 534.188 199.103 538.582 202.872 539.87C209.322 542.074 214.512 541.905 222.221 553.944C229.928 565.982 245.472 609.609 245.472 609.609Z" fill="#C88971"/>
<path d="M233.305 518.474L240.739 520.625C242.441 521.117 244.281 519.863 244.825 517.84C245.369 515.817 244.406 513.808 242.688 513.381L235.177 511.512L233.305 518.474Z" fill="#747A7D"/>
<path d="M233.305 518.474L240.739 520.625C242.441 521.117 244.281 519.863 244.825 517.84C245.369 515.817 244.406 513.808 242.688 513.381L235.177 511.512L233.305 518.474Z" fill="#747A7D"/>
<path d="M233.305 518.474L240.739 520.625C242.441 521.117 244.281 519.863 244.825 517.84C245.369 515.817 244.406 513.808 242.688 513.381L235.177 511.512L233.305 518.474Z" fill="#747A7D"/>
<path d="M239.255 516.341C239.618 514.99 239.546 513.645 239.135 512.497L235.177 511.512L233.305 518.474L237.222 519.607C238.154 518.82 238.891 517.692 239.255 516.341Z" fill="#5C5E65"/>
<path d="M140.276 490.474L142.451 491.429L143.014 489.335L140.653 489.07C140.187 488.954 139.776 488.999 139.629 489.548C139.482 490.096 139.814 490.341 140.276 490.474Z" fill="#747A7D"/>
<path d="M144.048 493.05L150.736 495.985L152.466 489.551L145.209 488.735C143.777 488.378 142.515 488.517 142.062 490.202C141.609 491.887 142.631 492.64 144.048 493.05Z" fill="#747A7D"/>
<path d="M151.496 493.171L152.469 489.551L145.211 488.735C143.78 488.378 142.518 488.517 142.065 490.202C142.025 490.349 142.01 490.481 141.992 490.615L151.496 493.171Z" fill="#5C5E65"/>
<path d="M151.938 497.258L231.487 520.271C234.123 521.033 236.974 519.09 237.817 515.955C238.66 512.82 237.169 509.709 234.506 509.047L154.145 489.051L151.938 497.258Z" fill="#747A7D"/>
<path d="M238.027 514.703C238.235 512.032 236.81 509.62 234.504 509.047L154.143 489.051L153.367 491.934L238.027 514.703Z" fill="#5C5E65"/>
<path d="M205.133 507.165C204.923 507.947 205.378 508.754 206.156 508.979L232.067 516.475C232.972 516.737 233.951 516.069 234.241 514.993C234.53 513.917 234.018 512.848 233.104 512.621L206.928 506.108C206.141 505.912 205.344 506.382 205.133 507.165Z" fill="#FF7A00"/>
<path d="M195.882 498.658L198.093 499.252C198.547 499.374 198.798 499.909 198.654 500.446L196.158 509.727C196.013 510.264 195.528 510.6 195.074 510.478L192.862 509.883C192.409 509.761 192.158 509.228 192.303 508.69L194.799 499.408C194.943 498.872 195.428 498.536 195.882 498.658Z" fill="#FF7A00"/>
<path d="M152.869 488.014L154.657 488.495C155.064 488.604 155.29 489.083 155.159 489.565L153.073 497.322C152.944 497.804 152.509 498.106 152.102 497.996L150.312 497.515C149.905 497.406 149.681 496.927 149.81 496.445L151.896 488.687C152.026 488.206 152.461 487.905 152.869 488.014Z" fill="#FF7A00"/>
<path d="M172.355 507.973C171.514 507.927 170.951 507.95 170.951 507.95C172.391 502.154 170.11 500.018 168.671 498.552C165.561 495.383 154.641 495.646 156.529 501.981C158.416 508.316 152.556 509.05 154.631 513.496C158.741 522.302 161.803 516.642 170.092 525.988C170.794 526.781 171.556 527.546 172.355 528.29V507.973Z" fill="#E4977B"/>
<path d="M172.356 466.92C168.912 472.161 165.203 479.852 164.164 481.72C162.591 484.552 154.883 491.144 154.883 491.144C156.771 496.478 163.299 494.226 165.414 492.793C167.528 491.361 171.739 486.754 171.739 486.754C171.94 486.734 172.147 486.686 172.356 486.625V466.92Z" fill="#E4977B"/>
<path d="M207.955 474.058C206.317 474.028 204.656 474.025 203.098 473.962C204.656 474.025 206.317 474.028 207.955 474.058L207.955 474.058Z" fill="#329793"/>
<path d="M200.265 473.745C200.261 473.745 200.258 473.744 200.254 473.744C200.257 473.744 200.261 473.745 200.265 473.745ZM194.496 471.371C193.804 470.919 193.053 470.415 192.265 469.883C192.262 469.88 192.26 469.879 192.258 469.877C193.048 470.412 193.801 470.918 194.496 471.371Z" fill="#DEDBD9"/>
<path d="M213.111 480.37C212.421 480.37 211.084 479.99 208.824 479.046C197.479 474.307 192.523 470.08 192.266 469.883C193.054 470.415 193.804 470.919 194.496 471.371C195.336 471.92 196.09 472.394 196.725 472.754C197.624 473.263 198.836 473.562 200.234 473.741C200.235 473.741 200.237 473.741 200.238 473.741C200.243 473.742 200.248 473.743 200.254 473.744C200.258 473.744 200.261 473.745 200.266 473.745C200.268 473.745 200.271 473.746 200.274 473.746C200.28 473.747 200.286 473.748 200.292 473.748C200.293 473.748 200.293 473.749 200.294 473.749C201.168 473.858 202.113 473.922 203.098 473.962C204.657 474.025 206.318 474.028 207.956 474.058C207.956 474.058 215.924 480.371 213.111 480.37Z" fill="#C88971"/>
<path d="M177.864 482.405C176.767 481.097 177.127 477.63 177.127 477.63C177.652 479.675 179.097 480.934 179.097 480.934L177.864 482.405Z" fill="#C88971"/>
<path d="M155.057 514.36L154.633 513.496C154.633 513.496 156.329 509.048 160.33 509.048C160.371 509.048 160.412 509.049 160.454 509.05C160.454 509.05 155.481 511.606 155.057 514.36Z" fill="#C88971"/>
<path d="M100.757 452.016C91.8998 454.005 86.9183 459.051 85.1279 461.215C84.9953 461.371 84.8664 461.532 84.7394 461.701C84.4835 462.035 84.3572 462.228 84.3572 462.228C84.3572 462.228 78.8098 463.147 76.9042 466.295C76.9042 466.295 73.5581 466.501 71.1974 468.236C71.1974 468.236 67.9235 466.529 64.9808 463.65C56.6874 475.24 54.7987 491.408 60.4338 504.519C61.3135 504.061 62.208 503.597 63.1213 503.073C68.9924 499.711 82.8861 490.563 89.0112 479.676C94.0083 470.794 97.7161 472.406 100.083 468.158L100.085 468.156C102.723 465.37 103.329 462.924 109.163 459.469C112.309 457.605 108.586 450.257 100.757 452.016Z" fill="#E4977B"/>
<mask id="mask2_362_970" style="mask-type:luminance" maskUnits="userSpaceOnUse" x="57" y="451" width="54" height="54">
<path d="M100.757 452.016C91.8998 454.005 86.9183 459.051 85.1279 461.215C84.9953 461.371 84.8664 461.532 84.7394 461.701C84.4835 462.035 84.3572 462.228 84.3572 462.228C84.3572 462.228 78.8098 463.147 76.9042 466.295C76.9042 466.295 73.5581 466.501 71.1974 468.236C71.1974 468.236 67.9235 466.529 64.9808 463.65C56.6874 475.24 54.7987 491.408 60.4338 504.519C61.3135 504.061 62.208 503.597 63.1213 503.073C68.9924 499.711 82.8861 490.563 89.0112 479.676C94.0083 470.794 97.7161 472.406 100.083 468.158L100.085 468.156C102.723 465.37 103.329 462.924 109.163 459.469C112.309 457.605 108.586 450.257 100.757 452.016Z" fill="white"/>
</mask>
<g mask="url(#mask2_362_970)">
<path d="M103.06 464.239C101.596 464.238 98.5086 461.364 97.7703 460.54C96.923 459.594 101.118 456.312 105.101 455.146C105.261 455.099 105.419 455.075 105.576 455.075C106.545 455.075 107.482 455.995 108.727 458.17C109.02 458.68 109.027 459.18 108.843 459.66C107.375 460.551 106.252 461.373 105.345 462.153C104.514 462.868 103.866 463.547 103.301 464.208C103.227 464.229 103.146 464.239 103.06 464.239Z" fill="#E7A088"/>
<path d="M98.6103 470.037C98.6047 470.034 98.5997 470.031 98.5941 470.028C98.0101 469.677 97.4449 469.315 96.8877 468.94C96.3305 468.564 95.7808 468.178 95.2355 467.771C94.6926 467.356 94.1467 466.937 93.625 466.419C94.3602 466.465 95.0469 466.664 95.7086 466.918C96.3679 467.179 96.9942 467.513 97.5812 467.906C98.1683 468.299 98.7148 468.753 99.206 469.264C99.2303 469.289 99.254 469.315 99.2776 469.34C99.0641 469.596 98.8412 469.826 98.6103 470.037Z" fill="#C88971"/>
</g>
<path d="M46.9724 519.925C51.3405 509.331 55.6615 507.01 60.4357 504.519C61.3154 504.061 62.2099 503.596 63.1232 503.073C62.2099 503.597 61.3154 504.061 60.4357 504.519C55.6615 507.01 51.3405 509.331 46.9724 519.925Z" fill="#C4C3C1"/>
<path d="M32.621 609.609H25.1445C27.1831 597.665 32.2229 568.521 34.8979 548.961C38.2177 524.682 43.6559 511.881 46.5184 509.048C49.2432 506.352 53.4951 503.847 59.1969 501.224C59.5592 502.341 59.9719 503.441 60.4357 504.519C55.6615 507.01 51.3405 509.331 46.9724 519.925C42.7022 530.282 35.1325 589.324 32.621 609.609Z" fill="#C88971"/>
<path d="M63.1641 503.05C63.1672 503.048 63.1715 503.046 63.1753 503.044C63.1715 503.046 63.1678 503.048 63.1641 503.05Z" fill="#C4C3C1"/>
<path d="M60.4342 504.519C59.9704 503.441 59.5576 502.341 59.1953 501.224C63.7186 499.144 69.154 496.989 75.4646 494.605C70.7028 498.442 66.032 501.402 63.1889 503.035C63.1864 503.036 63.1833 503.038 63.1802 503.04C63.1777 503.041 63.1752 503.042 63.1727 503.044C63.1689 503.046 63.1646 503.048 63.1615 503.05C63.1596 503.052 63.1577 503.053 63.1559 503.053C63.144 503.06 63.1328 503.066 63.1216 503.073C62.2084 503.596 61.3138 504.061 60.4342 504.519Z" fill="#C88971"/>
<path d="M130.42 377.434H124.251V380.543H129.697V382.729H124.251V387.015H121.528V375.249H130.42V377.434ZM136.151 387.149C133.277 387.149 131.176 385.216 131.176 382.493C131.176 379.77 133.277 377.837 136.151 377.837C139.025 377.837 141.11 379.77 141.11 382.493C141.11 385.216 139.025 387.149 136.151 387.149ZM136.151 384.998C137.462 384.998 138.454 384.056 138.454 382.493C138.454 380.93 137.462 379.989 136.151 379.989C134.84 379.989 133.832 380.93 133.832 382.493C133.832 384.056 134.84 384.998 136.151 384.998ZM145.367 379.165C146.006 378.291 147.081 377.837 148.476 377.837V380.258C148.258 380.241 148.09 380.224 147.888 380.224C146.443 380.224 145.484 381.014 145.484 382.745V387.015H142.862V377.972H145.367V379.165ZM161.616 377.837C163.768 377.837 165.314 379.081 165.314 381.838V387.015H162.692V382.241C162.692 380.779 162.037 380.106 160.978 380.106C159.801 380.106 158.978 380.863 158.978 382.476V387.015H156.355V382.241C156.355 380.779 155.734 380.106 154.641 380.106C153.481 380.106 152.658 380.863 152.658 382.476V387.015H150.035V377.972H152.54V379.014C153.212 378.241 154.221 377.837 155.381 377.837C156.641 377.837 157.717 378.325 158.356 379.316C159.078 378.392 160.255 377.837 161.616 377.837Z" fill="#0E0E0E"/>
</g>
<defs>
<clipPath id="clip0_362_970">
<rect width="274" height="568" fill="white"/>
</clipPath>
</defs>
</svg>
